<?xml version="1.0" encoding="UTF-8"?>
<svg width="32" height="32" viewBox="0 0 32 32" fill="none" xmlns="http://www.w3.org/2000/svg">
  <!-- Pickle jar -->
  <path d="M8 6C8 4.89543 8.89543 4 10 4H22C23.1046 4 24 4.89543 24 6V28C24 29.1046 23.1046 30 22 30H10C8.89543 30 8 29.1046 8 28V6Z" fill="#F1E5C3" stroke="#194D33" stroke-width="2"/>
  
  <!-- Jar lid -->
  <path d="M7 6C7 3.79086 8.79086 2 11 2H21C23.2091 2 25 3.79086 25 6V7H7V6Z" fill="#A09A84" stroke="#194D33" stroke-width="2"/>
  
  <!-- Pickle 1 -->
  <path d="M12 10C12 10 11 12 11 15C11 18 12 20 12 20C12 20 13 18 13 15C13 12 12 10 12 10Z" fill="#5A9A3D" stroke="#194D33" stroke-width="1.5"/>
  
  <!-- Pickle 2 -->
  <path d="M16 12C16 12 15 14 15 17C15 20 16 22 16 22C16 22 17 20 17 17C17 14 16 12 16 12Z" fill="#5A9A3D" stroke="#194D33" stroke-width="1.5"/>
  
  <!-- Pickle 3 -->
  <path d="M20 9C20 9 19 11 19 14C19 17 20 19 20 19C20 19 21 17 21 14C21 11 20 9 20 9Z" fill="#5A9A3D" stroke="#194D33" stroke-width="1.5"/>
  
  <!-- Bubbles -->
  <circle cx="14" cy="14" r="1" fill="#FFFFFF" opacity="0.7"/>
  <circle cx="18" cy="16" r="1" fill="#FFFFFF" opacity="0.7"/>
  <circle cx="12" cy="18" r="0.8" fill="#FFFFFF" opacity="0.7"/>
  <circle cx="19" cy="11" r="0.8" fill="#FFFFFF" opacity="0.7"/>
</svg>
